<?xml version="1.0" standalone="no"?>
<!DOCTYPE svg PUBLIC "-//W3C//DTD SVG 20010904//EN"
 "http://www.w3.org/TR/2001/REC-SVG-20010904/DTD/svg10.dtd">
<svg version="1.0" xmlns="http://www.w3.org/2000/svg"
 width="280.000000pt" height="280.000000pt" viewBox="0 0 280.000000 280.000000"
 preserveAspectRatio="xMidYMid meet">
<metadata>
Created by potrace 1.14, written by Peter Selinger 2001-2017
</metadata>
<g transform="translate(0.000000,280.000000) scale(0.100000,-0.100000)"
fill="#000000" stroke="none">
<path d="M90 2685 c-28 -16 -19 -21 10 -5 13 7 21 7 25 0 3 -5 -1 -10 -9 -10
-8 0 -18 -5 -22 -12 -4 -7 -3 -8 4 -4 15 9 16 -16 1 -31 -8 -8 -7 -13 2 -18 7
-5 10 -4 5 3 -3 6 -2 13 3 16 5 4 12 2 15 -3 4 -5 2 -12 -4 -16 -6 -4 -7 -12
-3 -18 18 -29 -2 -57 -29 -40 -7 3 -8 1 -4 -6 4 -6 15 -10 24 -9 17 3 18 -1 1
-55 -7 -26 -6 -27 8 -15 15 12 15 11 3 -11 -12 -24 -13 -24 -26 -6 -8 10 -14
14 -14 9 0 -17 22 -33 39 -27 10 3 12 2 6 -4 -12 -9 -13 -28 -3 -39 4 -4 3
-13 -3 -20 -7 -8 -7 -14 1 -19 8 -5 8 -11 -1 -21 -9 -11 -8 -18 2 -31 13 -17
13 -17 -6 -3 -19 15 -19 15 -1 -14 10 -16 13 -25 7 -22 -7 4 -11 -1 -11 -13 0
-12 6 -21 13 -21 8 0 8 -3 -2 -9 -12 -8 -12 -12 -2 -24 8 -11 9 -17 1 -22 -8
-5 -8 -10 0 -20 8 -9 8 -15 0 -20 -6 -3 -7 -12 -3 -18 20 -31 1 -53 -34 -40
-10 3 -15 2 -10 -2 4 -5 17 -9 30 -10 13 -2 21 -8 18 -16 -2 -8 -7 -27 -12
-42 -7 -26 -6 -27 8 -15 15 12 15 11 3 -11 -12 -24 -13 -24 -26 -6 -8 10 -14
14 -14 9 0 -17 22 -33 39 -27 10 3 12 2 6 -4 -12 -9 -13 -28 -3 -39 4 -4 3
-13 -3 -20 -7 -8 -7 -14 1 -19 8 -5 8 -11 -1 -21 -9 -11 -8 -18 2 -31 13 -17
13 -17 -6 -3 -19 15 -19 15 -1 -14 10 -16 13 -25 7 -22 -7 4 -11 -1 -11 -13 0
-12 6 -21 13 -21 8 0 8 -3 -2 -9 -12 -8 -12 -12 -2 -24 8 -11 9 -17 1 -22 -8
-5 -8 -10 0 -20 8 -9 8 -15 0 -20 -6 -3 -7 -12 -3 -18 20 -31 1 -53 -34 -40
-10 3 -15 2 -10 -2 4 -5 17 -9 30 -10 13 -2 21 -8 18 -16 -2 -8 -7 -27 -12
-42 -7 -26 -6 -27 8 -15 15 12 15 11 3 -11 -12 -24 -13 -24 -26 -6 -8 10 -14
14 -14 9 0 -17 22 -33 39 -27 10 3 12 2 6 -4 -12 -9 -13 -28 -3 -39 4 -4 3
-13 -3 -20 -7 -8 -7 -14 1 -19 8 -5 8 -11 -1 -21 -9 -11 -8 -18 2 -31 13 -17
13 -17 -6 -3 -19 15 -19 15 -1 -14 10 -16 13 -25 7 -22 -7 4 -11 -1 -11 -13 0
-12 6 -21 13 -21 8 0 8 -3 -2 -9 -12 -8 -12 -12 -2 -24 8 -11 9 -17 1 -22 -8
-5 -8 -10 0 -20 8 -9 8 -15 0 -20 -6 -3 -7 -12 -3 -18 20 -31 1 -53 -34 -40
-10 3 -15 2 -10 -2 4 -5 17 -9 30 -10 13 -2 21 -8 18 -16 -2 -8 -7 -27 -12
-42 -7 -26 -6 -27 8 -15 15 12 15 11 3 -11 -12 -24 -13 -24 -26 -6 -8 10 -14
14 -14 9 0 -17 22 -33 39 -27 10 3 12 2 6 -4 -12 -9 -13 -28 -3 -39 4 -4 3
-13 -3 -20 -7 -8 -7 -14 1 -19 8 -5 8 -11 -1 -21 -9 -11 -8 -18 2 -31 13 -17
13 -17 -6 -3 -19 15 -19 15 -1 -14 10 -16 13 -25 7 -22 -7 4 -11 -1 -11 -13 0
-12 6 -21 13 -21 8 0 8 -3 -2 -9 -12 -8 -12 -12 -2 -24 8 -11 9 -17 1 -22 -8
-5 -8 -10 0 -20 8 -9 8 -15 0 -20 -6 -3 -7 -12 -3 -18 18 -29 -2 -57 -29 -40
-7 3 -8 1 -4 -6 4 -6 15 -10 24 -9 17 3 17 -1 2 -54 -7 -22 -5 -26 8 -22 11 4
8 -3 -8 -16 l-25 -23 25 7 c14 4 20 4 15 -1 -12 -9 -13 -28 -3 -39 4 -4 3 -13
-3 -20 -7 -8 -7 -14 1 -19 8 -5 7 -11 -1 -22 -10 -12 -10 -16 2 -24 9 -5 10
-9 2 -9 -18 0 -11 -40 7 -40 13 0 13 -1 0 -10 -13 -8 -13 -10 2 -10 9 0 23 6
30 13 7 8 19 12 27 9 8 -3 11 0 8 5 -3 5 4 10 15 10 11 1 28 8 37 16 23 20 46
11 29 -11 -12 -15 -11 -16 4 -3 10 7 15 17 13 22 -3 4 4 13 16 19 12 7 19 8
16 3 -3 -5 3 -9 15 -8 11 1 26 12 34 26 7 13 13 18 14 11 0 -7 5 -10 10 -7 6
4 8 11 5 16 -3 5 1 6 9 3 10 -4 16 -1 16 7 0 11 3 11 10 -1 7 -12 10 -12 10
-1 0 7 6 11 15 8 8 -4 17 -1 21 5 4 6 3 8 -4 4 -6 -3 -14 -2 -17 4 -4 6 -3 10
2 9 30 -5 65 2 60 14 -3 9 5 12 30 12 22 -1 42 6 58 21 21 19 24 20 28 6 4
-14 5 -14 6 2 1 12 6 16 17 12 15 -6 15 -4 3 11 -7 10 -9 15 -5 11 5 -4 15 -3
22 3 8 7 14 6 20 -2 5 -8 3 -9 -6 -4 -9 5 -11 4 -6 -3 11 -18 56 15 49 36 -4
13 -2 12 10 -3 14 -17 16 -17 17 -3 0 11 6 15 20 11 22 -6 28 12 8 20 -7 3 -4
6 7 6 11 1 36 3 55 4 25 1 36 7 38 20 3 17 5 17 21 3 15 -14 18 -14 18 -1 0 8
-5 11 -10 8 -6 -3 -7 -1 -3 5 4 7 18 12 32 12 18 0 23 4 18 12 -6 10 -4 10 8
0 11 -9 18 -10 23 -2 3 6 11 7 17 4 7 -4 8 -2 4 5 -6 9 -12 9 -24 -1 -15 -11
-15 -11 -4 4 7 9 24 15 38 13 20 -2 24 1 19 14 -5 12 -3 13 5 5 9 -9 17 -7 31
7 10 10 25 19 32 19 8 0 7 -4 -3 -10 -10 -7 -11 -10 -2 -10 7 0 15 7 18 15 8
21 25 19 18 -3 -5 -16 -5 -16 6 1 6 9 9 21 6 26 -4 5 3 7 14 4 11 -3 17 -10
13 -16 -3 -6 -1 -7 6 -3 6 4 9 11 6 16 -3 4 3 14 12 21 12 10 14 10 9 2 -4 -7
-2 -13 3 -13 10 0 15 14 12 32 0 4 5 5 13 2 8 -3 17 -1 20 5 4 6 14 7 23 4 10
-4 14 -2 10 4 -3 5 0 10 7 10 9 0 12 -7 8 -15 -4 -11 1 -10 15 4 11 10 17 24
14 29 -2 6 4 3 14 -5 10 -8 16 -10 12 -3 -4 6 -2 15 4 19 7 4 9 3 6 -2 -3 -6
-2 -16 4 -24 5 -8 9 -10 9 -4 0 6 15 10 34 10 28 -1 32 -3 23 -15 -10 -12 -9
-14 5 -8 10 3 18 2 18 -3 0 -5 7 -6 17 -3 10 4 14 2 9 -5 -8 -14 10 -25 43
-26 15 -1 25 -6 24 -13 -2 -7 4 -10 13 -6 9 3 20 0 25 -8 7 -12 9 -12 9 1 1 9
5 6 10 -7 6 -15 15 -20 30 -16 16 4 19 2 14 -13 -4 -12 -3 -15 3 -7 10 14 38
12 54 -4 6 -6 18 -9 27 -6 11 5 13 3 7 -7 -6 -10 -4 -12 9 -7 11 4 15 3 10 -4
-3 -6 1 -10 12 -9 32 4 35 1 23 -22 l-12 -23 23 20 c20 17 22 17 17 3 -7 -20
8 -34 19 -17 5 8 3 9 -6 4 -9 -5 -11 -4 -6 3 9 15 12 15 29 -2 7 -8 25 -16 38
-18 13 -1 32 -12 42 -22 18 -20 52 -32 42 -15 -4 5 1 6 9 3 9 -3 14 -9 12 -13
-3 -4 5 -13 17 -21 20 -12 21 -12 8 4 -12 14 -12 16 3 10 9 -3 16 -10 16 -16
0 -5 5 -6 10 -3 6 3 10 -2 11 -12 0 -10 3 -13 6 -5 6 16 21 15 40 -4 9 -8 22
-13 30 -10 11 5 13 1 7 -16 -6 -20 -5 -21 10 -9 12 10 16 10 16 1 0 -9 4 -9
17 1 14 12 16 12 8 0 -6 -11 -4 -13 8 -8 17 6 21 -2 17 -33 -1 -10 3 -9 14 5
13 19 15 19 21 3 4 -11 18 -18 32 -18 13 0 22 -4 19 -9 -6 -9 30 -24 53 -21 7
1 10 -3 6 -10 -6 -9 -2 -9 14 -1 16 9 21 9 21 -1 0 -7 13 -22 28 -33 15 -10
22 -13 15 -4 -10 12 -8 15 8 15 11 0 18 -5 15 -12 -3 -8 2 -11 15 -9 13 3 19
0 16 -8 -3 -7 -10 -11 -16 -9 -7 1 -9 -2 -5 -9 5 -9 12 -6 25 10 l18 21 6 -20
c5 -15 10 -18 19 -11 8 7 15 4 24 -10 8 -13 23 -19 48 -19 19 0 33 4 29 9 -3
5 0 13 6 17 8 5 7 9 -2 14 -10 7 -10 12 0 23 9 12 9 16 -1 20 -11 4 -10 6 0 6
8 1 10 6 5 13 -11 18 -10 52 2 60 6 5 4 8 -5 8 -10 0 -7 5 8 16 12 8 22 20 22
26 0 7 -6 4 -13 -7 -9 -11 -16 -14 -21 -7 -3 6 -2 13 4 17 5 3 10 11 10 16 0
6 -4 8 -8 5 -5 -3 -9 1 -9 9 0 8 4 15 9 15 4 0 8 5 8 11 0 5 -6 7 -12 3 -10
-6 -10 -5 -1 8 7 8 9 18 5 22 -12 13 -8 30 10 44 10 7 18 18 18 24 0 7 -6 4
-13 -7 -9 -11 -16 -14 -21 -7 -3 6 -2 13 4 17 5 3 10 11 10 16 0 6 -4 8 -8 5
-5 -3 -9 1 -9 9 0 8 4 15 9 15 4 0 8 5 8 11 0 5 -6 7 -12 3 -10 -6 -10 -4 0 8
7 9 9 19 4 22 -10 6 -9 56 2 74 4 7 2 12 -6 12 -9 0 -9 3 2 10 13 9 13 10 0
10 -13 0 -13 1 0 10 13 9 13 11 0 20 -13 9 -13 10 0 10 13 0 13 1 0 10 -12 8
-12 10 5 10 19 1 19 1 2 11 -14 8 -16 14 -6 25 9 11 9 14 0 14 -7 0 -9 5 -6
10 4 6 12 8 18 4 7 -3 4 1 -5 8 -15 13 -15 15 0 24 13 9 13 12 2 19 -9 6 -11
4 -5 -6 5 -8 4 -10 0 -6 -12 10 -15 38 -4 31 5 -3 9 2 9 11 0 9 -4 14 -8 11
-10 -6 -9 25 2 42 4 7 2 12 -4 12 -6 0 -8 5 -5 10 4 6 12 8 18 4 7 -3 3 2 -7
10 -15 12 -16 16 -5 16 12 0 12 2 0 9 -11 7 -11 9 0 14 12 4 11 7 -1 16 -13
10 -13 11 0 11 13 0 13 1 0 10 -12 8 -12 10 5 10 19 1 19 1 2 11 -14 8 -16 14
-6 25 9 11 9 14 0 14 -7 0 -9 5 -6 10 4 6 12 8 18 4 7 -3 4 1 -5 8 -15 13 -15
15 0 24 13 9 13 12 2 19 -9 6 -11 4 -5 -6 5 -8 4 -10 0 -6 -12 10 -15 38 -4
31 5 -3 9 2 9 11 0 9 -4 14 -8 11 -10 -6 -9 25 2 42 4 7 2 12 -4 12 -6 0 -8 5
-5 10 4 6 12 8 18 4 7 -3 3 2 -7 10 -15 12 -16 16 -5 16 12 0 12 2 0 9 -11 7
-11 9 0 14 12 4 11 7 -1 16 -13 10 -13 11 0 11 13 0 13 1 0 10 -12 8 -12 10 5
10 19 1 19 1 2 11 -14 8 -16 14 -6 25 9 11 9 14 0 14 -7 0 -9 5 -6 10 4 6 12
8 18 4 7 -3 4 1 -5 8 -15 13 -15 15 0 24 13 9 13 12 2 19 -9 6 -11 4 -5 -6 5
-8 4 -10 0 -6 -12 10 -15 38 -4 31 5 -3 9 2 9 11 0 9 -4 14 -8 11 -10 -6 -9
25 2 42 4 7 2 12 -4 12 -6 0 -8 5 -5 10 4 6 12 8 18 4 7 -3 3 2 -7 10 -15 12
-16 16 -5 16 12 0 12 2 0 9 -11 7 -11 9 0 14 12 4 11 7 -1 16 -13 10 -13 11 0
11 13 0 13 1 0 10 -12 8 -12 10 5 10 19 1 19 1 2 11 -14 8 -16 14 -6 25 9 11
9 14 0 14 -7 0 -9 5 -6 10 4 6 12 8 18 4 7 -3 4 1 -5 8 -15 13 -15 15 0 24 13
9 13 12 2 19 -9 6 -11 4 -5 -6 5 -8 4 -10 0 -6 -12 10 -15 38 -4 31 5 -3 9 2
9 11 0 9 -4 14 -8 11 -10 -6 -9 25 2 42 4 7 2 12 -4 12 -6 0 -8 5 -5 10 4 6
12 8 18 4 7 -3 3 2 -7 10 -15 12 -16 16 -5 16 12 0 12 2 0 9 -11 7 -11 9 0 14
12 4 11 7 -1 16 -13 10 -13 11 0 11 13 0 13 1 0 10 -12 8 -12 10 5 10 19 1 19
1 2 11 -14 8 -16 14 -6 25 9 11 9 14 0 14 -7 0 -9 5 -6 10 4 6 12 8 18 4 7 -3
4 1 -5 8 -15 13 -15 15 0 24 13 9 13 12 2 19 -9 6 -11 4 -5 -6 5 -8 4 -10 0
-6 -12 10 -15 38 -4 31 5 -3 9 2 9 11 0 9 -4 14 -8 11 -10 -6 -9 25 2 42 4 7
2 12 -4 12 -6 0 -8 5 -5 10 4 6 12 8 18 4 7 -3 3 2 -7 10 -15 12 -16 16 -5 16
12 0 12 2 0 9 -11 7 -11 9 0 14 12 4 11 7 -1 16 -13 10 -13 11 0 11 13 0 13 1
0 10 -12 8 -12 10 5 10 19 1 19 1 2 11 -14 8 -16 14 -6 25 9 11 9 14 0 14 -7
0 -9 5 -6 10 4 6 12 8 18 4 7 -3 4 1 -6 9 -17 14 -17 15 0 22 17 6 17 7 1 19
-15 11 -15 13 0 24 9 7 11 10 5 7 -7 -3 -13 -1 -13 4 0 8 -386 11 -1282 11
-1093 -1 -1287 -3 -1308 -15z m1450 -1885 c0 -5 -2 -10 -4 -10 -3 0 -8 5 -11
10 -3 6 -1 10 4 10 6 0 11 -4 11 -10z m-650 -160 c0 -5 -5 -10 -11 -10 -5 0
-7 5 -4 10 3 6 8 10 11 10 2 0 4 -4 4 -10z m-280 -114 c0 -2 -7 -9 -15 -16
-13 -11 -14 -10 -9 4 5 14 24 23 24 12z m1764 -92 c5 -14 4 -15 -9 -4 -17 14
-19 20 -6 20 5 0 12 -7 15 -16z m-2010 -29 c-4 -8 -11 -12 -16 -9 -6 4 -5 10
3 15 19 12 19 11 13 -6z"/>
<path d="M50 2579 c0 -5 5 -7 10 -4 6 3 10 8 10 11 0 2 -4 4 -10 4 -5 0 -10
-5 -10 -11z"/>
<path d="M94 2579 c-3 -6 -1 -16 5 -22 9 -9 10 -7 5 7 -6 15 -4 17 6 11 9 -5
11 -4 6 3 -9 15 -13 15 -22 1z"/>
<path d="M100 2520 c-9 -6 -10 -10 -3 -10 6 0 15 5 18 10 8 12 4 12 -15 0z"/>
<path d="M75 2490 c-3 -6 1 -7 9 -4 18 7 21 14 7 14 -6 0 -13 -4 -16 -10z"/>
<path d="M75 2400 c-3 -5 -2 -10 4 -10 5 0 13 5 16 10 3 6 2 10 -4 10 -5 0
-13 -4 -16 -10z"/>
<path d="M2684 2402 c4 -3 14 -7 22 -8 9 -1 13 0 10 4 -4 3 -14 7 -22 8 -9 1
-13 0 -10 -4z"/>
<path d="M96 2381 c-4 -5 -2 -12 3 -15 5 -4 12 -2 15 3 4 5 2 12 -3 15 -5 4
-12 2 -15 -3z"/>
<path d="M93 2335 c-3 -9 -3 -19 1 -22 3 -4 6 1 6 11 0 10 5 14 12 10 7 -4 8
-3 4 4 -10 16 -15 15 -23 -3z"/>
<path d="M75 2260 c-3 -6 1 -7 9 -4 18 7 21 14 7 14 -6 0 -13 -4 -16 -10z"/>
<path d="M90 2165 c-14 -8 -20 -14 -14 -15 5 0 19 7 30 15 24 18 16 19 -16 0z"/>
<path d="M96 2141 c-4 -5 -2 -12 3 -15 5 -4 12 -2 15 3 4 5 2 12 -3 15 -5 4
-12 2 -15 -3z"/>
<path d="M50 2099 c0 -5 5 -7 10 -4 6 3 10 8 10 11 0 2 -4 4 -10 4 -5 0 -10
-5 -10 -11z"/>
<path d="M94 2099 c-3 -6 -1 -16 5 -22 9 -9 10 -7 5 7 -6 15 -4 17 6 11 9 -5
11 -4 6 3 -9 15 -13 15 -22 1z"/>
<path d="M2684 2082 c4 -3 14 -7 22 -8 9 -1 13 0 10 4 -4 3 -14 7 -22 8 -9 1
-13 0 -10 -4z"/>
<path d="M100 2040 c-9 -6 -10 -10 -3 -10 6 0 15 5 18 10 8 12 4 12 -15 0z"/>
<path d="M75 2010 c-3 -6 1 -7 9 -4 18 7 21 14 7 14 -6 0 -13 -4 -16 -10z"/>
<path d="M75 1920 c-3 -5 -2 -10 4 -10 5 0 13 5 16 10 3 6 2 10 -4 10 -5 0
-13 -4 -16 -10z"/>
<path d="M96 1901 c-4 -5 -2 -12 3 -15 5 -4 12 -2 15 3 4 5 2 12 -3 15 -5 4
-12 2 -15 -3z"/>
<path d="M93 1855 c-3 -9 -3 -19 1 -22 3 -4 6 1 6 11 0 10 5 14 12 10 7 -4 8
-3 4 4 -10 16 -15 15 -23 -3z"/>
<path d="M75 1780 c-3 -6 1 -7 9 -4 18 7 21 14 7 14 -6 0 -13 -4 -16 -10z"/>
<path d="M2684 1762 c4 -3 14 -7 22 -8 9 -1 13 0 10 4 -4 3 -14 7 -22 8 -9 1
-13 0 -10 -4z"/>
<path d="M90 1685 c-14 -8 -20 -14 -14 -15 5 0 19 7 30 15 24 18 16 19 -16 0z"/>
<path d="M96 1661 c-4 -5 -2 -12 3 -15 5 -4 12 -2 15 3 4 5 2 12 -3 15 -5 4
-12 2 -15 -3z"/>
<path d="M50 1619 c0 -5 5 -7 10 -4 6 3 10 8 10 11 0 2 -4 4 -10 4 -5 0 -10
-5 -10 -11z"/>
<path d="M94 1619 c-3 -6 -1 -16 5 -22 9 -9 10 -7 5 7 -6 15 -4 17 6 11 9 -5
11 -4 6 3 -9 15 -13 15 -22 1z"/>
<path d="M100 1560 c-9 -6 -10 -10 -3 -10 6 0 15 5 18 10 8 12 4 12 -15 0z"/>
<path d="M75 1530 c-3 -6 1 -7 9 -4 18 7 21 14 7 14 -6 0 -13 -4 -16 -10z"/>
<path d="M75 1440 c-3 -5 -2 -10 4 -10 5 0 13 5 16 10 3 6 2 10 -4 10 -5 0
-13 -4 -16 -10z"/>
<path d="M2684 1442 c4 -3 14 -7 22 -8 9 -1 13 0 10 4 -4 3 -14 7 -22 8 -9 1
-13 0 -10 -4z"/>
<path d="M96 1421 c-4 -5 -2 -12 3 -15 5 -4 12 -2 15 3 4 5 2 12 -3 15 -5 4
-12 2 -15 -3z"/>
<path d="M93 1375 c-3 -9 -3 -19 1 -22 3 -4 6 1 6 11 0 10 5 14 12 10 7 -4 8
-3 4 4 -10 16 -15 15 -23 -3z"/>
<path d="M75 1300 c-3 -6 1 -7 9 -4 18 7 21 14 7 14 -6 0 -13 -4 -16 -10z"/>
<path d="M90 1205 c-14 -8 -20 -14 -14 -15 5 0 19 7 30 15 24 18 16 19 -16 0z"/>
<path d="M96 1181 c-4 -5 -2 -12 3 -15 5 -4 12 -2 15 3 4 5 2 12 -3 15 -5 4
-12 2 -15 -3z"/>
<path d="M50 1139 c0 -5 5 -7 10 -4 6 3 10 8 10 11 0 2 -4 4 -10 4 -5 0 -10
-5 -10 -11z"/>
<path d="M94 1139 c-3 -6 -1 -16 5 -22 9 -9 10 -7 5 7 -6 15 -4 17 6 11 9 -5
11 -4 6 3 -9 15 -13 15 -22 1z"/>
<path d="M2684 1122 c4 -3 14 -7 22 -8 9 -1 13 0 10 4 -4 3 -14 7 -22 8 -9 1
-13 0 -10 -4z"/>
<path d="M100 1080 c-9 -6 -10 -10 -3 -10 6 0 15 5 18 10 8 12 4 12 -15 0z"/>
<path d="M75 1050 c-3 -6 1 -7 9 -4 18 7 21 14 7 14 -6 0 -13 -4 -16 -10z"/>
<path d="M75 960 c-3 -5 -2 -10 4 -10 5 0 13 5 16 10 3 6 2 10 -4 10 -5 0 -13
-4 -16 -10z"/>
<path d="M96 941 c-4 -5 -2 -12 3 -15 5 -4 12 -2 15 3 4 5 2 12 -3 15 -5 4
-12 2 -15 -3z"/>
<path d="M93 895 c-3 -9 -3 -19 1 -22 3 -4 6 1 6 11 0 10 5 14 12 10 7 -4 8
-3 4 4 -10 16 -15 15 -23 -3z"/>
<path d="M2696 833 c-6 -14 -5 -15 5 -6 7 7 10 15 7 18 -3 3 -9 -2 -12 -12z"/>
<path d="M75 820 c-3 -6 1 -7 9 -4 18 7 21 14 7 14 -6 0 -13 -4 -16 -10z"/>
<path d="M1355 820 c3 -5 8 -10 11 -10 2 0 4 5 4 10 0 6 -5 10 -11 10 -5 0 -7
-4 -4 -10z"/>
<path d="M1266 805 c-11 -8 -15 -15 -9 -15 7 0 15 5 18 10 4 6 11 7 17 4 7 -4
8 -2 4 4 -9 14 -7 15 -30 -3z"/>
<path d="M90 725 c-14 -8 -20 -14 -14 -15 5 0 19 7 30 15 24 18 16 19 -16 0z"/>
<path d="M1710 710 c0 -5 5 -10 11 -10 5 0 7 5 4 10 -3 6 -8 10 -11 10 -2 0
-4 -4 -4 -10z"/>
<path d="M96 701 c-4 -5 -2 -12 3 -15 5 -4 12 -2 15 3 4 5 2 12 -3 15 -5 4
-12 2 -15 -3z"/>
<path d="M50 659 c0 -5 5 -7 10 -4 6 3 10 8 10 11 0 2 -4 4 -10 4 -5 0 -10 -5
-10 -11z"/>
<path d="M94 659 c-3 -6 -1 -16 5 -22 9 -9 10 -7 5 7 -6 15 -4 17 6 11 9 -5
11 -4 6 3 -9 15 -13 15 -22 1z"/>
<path d="M100 600 c-9 -6 -10 -10 -3 -10 6 0 15 5 18 10 8 12 4 12 -15 0z"/>
<path d="M830 600 c0 -5 7 -7 15 -4 8 4 15 8 15 10 0 2 -7 4 -15 4 -8 0 -15
-4 -15 -10z"/>
<path d="M1926 602 c-3 -5 1 -9 9 -9 8 0 12 4 9 9 -3 4 -7 8 -9 8 -2 0 -6 -4
-9 -8z"/>
<path d="M75 570 c-3 -6 1 -7 9 -4 18 7 21 14 7 14 -6 0 -13 -4 -16 -10z"/>
<path d="M75 480 c-3 -5 -2 -10 4 -10 5 0 13 5 16 10 3 6 2 10 -4 10 -5 0 -13
-4 -16 -10z"/>
<path d="M94 455 c-4 -8 -11 -12 -17 -8 -6 4 -7 1 -2 -7 6 -10 11 -10 20 3 7
9 16 13 20 9 5 -4 5 -1 1 6 -9 16 -15 15 -22 -3z"/>
<path d="M2696 453 c-6 -14 -5 -15 5 -6 7 7 10 15 7 18 -3 3 -9 -2 -12 -12z"/>
<path d="M93 415 c-3 -9 -3 -19 1 -22 3 -4 6 1 6 11 0 10 5 14 12 10 7 -4 8
-3 4 4 -10 16 -15 15 -23 -3z"/>
<path d="M70 366 c0 -2 7 -7 16 -10 8 -3 12 -2 9 4 -6 10 -25 14 -25 6z"/>
</g>
</svg>
